<svg width="428" height="377" viewBox="0 0 428 377" fill="none" xmlns="http://www.w3.org/2000/svg">
<rect width="428" height="377" fill="black"/>
<ellipse cx="214" cy="189" rx="168" ry="160" fill="#0E890E" fill-opacity="0.81"/>
<path d="M118.947 137.674L120.22 171.919L139.576 174.647L121.006 193.083L122.279 227.328L109.53 204.477L90.96 222.913L101.65 190.355L88.9004 167.504L108.257 170.232L118.947 137.674Z" fill="#D9D9D9"/>
<path d="M319.97 138.527L322.063 165.903L340.678 168.465L323.357 182.822L325.45 210.198L312.651 191.695L295.33 206.052L304.742 180.26L291.943 161.757L310.558 164.319L319.97 138.527Z" fill="#D9D9D9"/>
<path d="M332.336 227.927L341.29 235.752L353.886 229.266L346.824 240.588L355.778 248.413L342.459 247.585L335.397 258.908L334.228 247.074L320.91 246.247L333.506 239.761L332.336 227.927Z" fill="#D9D9D9"/>
<path d="M301.461 247.878L289.098 262.774L298.643 276.49L281.457 271.98L269.093 286.875L270.835 269.193L253.648 264.683L271.911 258.264L273.653 240.581L283.198 254.297L301.461 247.878Z" fill="#D9D9D9"/>
<path d="M274.152 101.452L284.422 114.869L297.61 109.455L290.77 123.161L301.041 136.578L286.543 131.632L279.702 145.339L277.582 128.576L263.084 123.63L276.272 118.216L274.152 101.452Z" fill="#D9D9D9"/>
<path d="M213.5 46L219.225 56.0193L237.752 56.0193L222.763 62.2115L228.489 72.2307L213.5 66.0385L198.511 72.2307L204.237 62.2115L189.248 56.0193L207.775 56.0193L213.5 46Z" fill="#D9D9D9"/>
<path d="M213.5 295L219.225 305.019L237.752 305.019L222.763 311.211L228.489 321.231L213.5 315.039L198.511 321.231L204.237 311.211L189.248 305.019L207.775 305.019L213.5 295Z" fill="#D9D9D9"/>
<ellipse cx="213.5" cy="202" rx="54.5" ry="79" fill="black"/>
</svg>
